<?xml version="1.0" standalone="no"?>
<!DOCTYPE svg PUBLIC "-//W3C//DTD SVG 20010904//EN"
 "http://www.w3.org/TR/2001/REC-SVG-20010904/DTD/svg10.dtd">
<svg version="1.0" xmlns="http://www.w3.org/2000/svg"
 width="1024.000000pt" height="1024.000000pt" viewBox="0 0 1024.000000 1024.000000"
 preserveAspectRatio="xMidYMid meet">

<g transform="translate(0.000000,1024.000000) scale(0.100000,-0.100000)"
fill="#000000" stroke="none">
<path d="M5087 7535 c-447 -61 -924 -310 -1282 -669 -395 -396 -624 -872 -685
-1425 -15 -137 -13 -427 5 -571 67 -537 302 -1029 669 -1396 367 -366 845
-597 1358 -653 144 -16 476 -14 615 4 264 35 486 100 704 206 322 158 619 400
820 671 68 92 193 292 214 342 34 80 7 191 -59 241 -62 47 -106 51 -261 21
-208 -39 -330 -49 -510 -43 -536 20 -1008 268 -1337 702 -145 191 -251 429
-311 695 -19 83 -21 126 -21 345 0 223 2 261 22 355 55 252 144 453 306 695
59 88 114 171 121 185 40 80 23 171 -44 240 -70 73 -124 82 -324 55z m-220
-511 c-76 -151 -190 -517 -221 -709 -32 -195 -28 -451 9 -668 141 -808 760
-1488 1540 -1690 182 -47 310 -62 552 -62 218 0 221 0 210 -20 -22 -43 -277
-283 -367 -347 -314 -222 -655 -337 -1054 -354 -632 -29 -1226 235 -1627 722
-224 273 -365 608 -415 989 -24 182 -15 504 20 687 73 386 249 716 538 1009
197 199 425 351 721 479 73 32 133 56 135 55 2 -2 -17 -43 -41 -91z"/>
</g>
</svg>
