<?xml version="1.0" standalone="no"?>
<!DOCTYPE svg PUBLIC "-//W3C//DTD SVG 20010904//EN"
 "http://www.w3.org/TR/2001/REC-SVG-20010904/DTD/svg10.dtd">
<svg version="1.0" xmlns="http://www.w3.org/2000/svg"
 width="1024.000000pt" height="1024.000000pt" viewBox="0 0 1024.000000 1024.000000"
 preserveAspectRatio="xMidYMid meet">

<g transform="translate(0.000000,1024.000000) scale(0.100000,-0.100000)"
fill="#000000" stroke="none">
<path d="M4890 8360 c-558 -44 -1136 -237 -1565 -523 -416 -277 -729 -606
-994 -1046 -138 -229 -275 -567 -351 -871 -168 -669 -126 -1326 122 -1950 273
-686 772 -1262 1413 -1630 356 -205 773 -351 1165 -406 151 -21 557 -29 732
-15 179 16 347 43 498 81 464 117 901 341 1280 656 645 536 1065 1331 1156
2184 38 357 -7 812 -118 1199 -38 134 -162 441 -238 589 -381 749 -1051 1314
-1876 1582 -372 121 -846 179 -1224 150z m87 -677 c-4 -137 -7 -481 -7 -765
l0 -518 -118 0 c-144 0 -335 14 -542 40 -173 21 -432 67 -441 78 -8 8 43 161
102 312 52 129 209 441 270 535 163 252 373 441 579 523 52 21 118 39 149 41
12 1 13 -37 8 -246z m440 211 c190 -71 383 -239 562 -490 105 -148 282 -516
367 -767 33 -97 40 -127 28 -127 -3 0 -68 -11 -143 -25 -271 -49 -633 -85
-855 -85 l-106 0 0 628 c0 346 -3 691 -7 767 l-6 138 49 -8 c27 -4 77 -18 111
-31z m-1303 -136 c-4 -7 -28 -42 -54 -78 -135 -186 -356 -654 -451 -952 -32
-101 -48 -138 -60 -138 -69 -1 -699 214 -699 239 0 23 199 239 345 374 243
225 437 350 805 518 113 52 125 56 114 37z m2082 -14 c102 -45 333 -163 412
-211 125 -75 329 -233 457 -354 159 -149 325 -328 325 -348 0 -12 -122 -65
-253 -109 -136 -47 -446 -137 -450 -131 -2 2 -27 75 -55 162 -59 177 -193 477
-314 702 -74 138 -108 193 -176 283 -30 39 -22 40 54 6z m-3306 -1267 c95 -40
335 -120 528 -177 39 -11 72 -24 72 -27 0 -3 -11 -65 -25 -137 -46 -244 -75
-504 -88 -778 -1 -37 -5 -69 -7 -72 -3 -2 -247 -6 -544 -8 l-539 -3 6 80 c7
98 48 336 81 470 45 183 142 436 248 650 57 113 51 109 112 75 28 -16 99 -49
156 -73z m4735 -27 c181 -360 274 -685 320 -1117 l7 -63 -189 0 c-103 0 -346
3 -539 7 l-351 6 -7 126 c-16 280 -45 513 -93 744 -14 70 -24 129 -22 131 2 2
98 31 213 65 252 74 370 118 496 182 52 26 96 48 97 48 2 1 32 -57 68 -129z
m-3625 -274 c206 -36 416 -56 858 -82 l112 -6 0 -409 0 -409 -167 0 c-93 0
-381 3 -642 7 l-474 6 7 161 c11 247 42 509 87 715 11 53 12 53 43 48 17 -3
96 -17 176 -31z m2455 12 c50 -213 105 -657 105 -850 l0 -58 -192 -1 c-106 0
-209 -1 -228 -1 -19 0 -223 0 -452 1 l-418 1 0 404 0 404 148 6 c291 14 685
56 892 95 131 25 139 25 145 -1z m-3085 -1208 c3 -152 47 -535 92 -803 17
-103 29 -189 27 -191 -2 -2 -107 -36 -234 -75 -243 -77 -412 -139 -512 -189
l-60 -31 -51 97 c-200 387 -297 712 -345 1157 l-5 41 544 -1 c299 0 544 -2
544 -5z m4580 -3 c0 -38 -33 -277 -51 -367 -30 -150 -90 -355 -149 -505 -55
-140 -188 -418 -199 -413 -3 2 -43 22 -88 46 -124 63 -215 97 -467 172 -125
38 -231 72 -234 75 -3 3 4 67 16 143 46 283 65 456 88 764 l6 88 476 3 c263 1
505 3 540 5 45 1 62 -2 62 -11z m-2977 -124 c9 -163 9 -504 1 -610 l-7 -81
-146 -6 c-346 -15 -692 -47 -911 -85 -58 -10 -106 -18 -107 -17 -1 0 -15 69
-32 151 -40 198 -69 427 -77 619 l-7 156 640 0 640 0 6 -127z m1587 90 c0 -68
-20 -316 -36 -438 -11 -93 -72 -443 -78 -452 -1 -1 -48 7 -106 18 -225 40
-456 63 -805 79 -121 5 -230 10 -242 10 l-23 0 0 410 0 410 645 0 645 0 0 -37z
m-1588 -1855 c2 -420 2 -765 1 -767 -6 -10 -109 25 -198 69 -250 122 -483 386
-665 755 -48 100 -105 221 -126 270 -39 93 -116 326 -110 332 8 9 216 44 371
63 211 25 376 37 572 39 l151 1 4 -762z m893 737 c196 -20 498 -64 508 -74 8
-8 -50 -193 -104 -328 -46 -116 -207 -431 -267 -522 -112 -170 -284 -354 -413
-442 -78 -53 -225 -117 -287 -126 l-45 -6 6 108 c4 59 7 403 7 763 l0 655 223
-6 c122 -4 290 -13 372 -22z m1225 -256 c52 -17 143 -51 202 -76 l108 -46 -42
-51 c-82 -101 -415 -423 -508 -493 -131 -98 -268 -182 -434 -269 -148 -77
-285 -138 -292 -131 -3 2 20 35 49 73 78 100 130 188 218 369 103 213 166 366
233 563 30 89 58 167 61 171 5 9 202 -45 405 -110z m-3505 54 c81 -278 318
-793 463 -1007 40 -59 71 -110 68 -113 -8 -8 -353 165 -474 237 -192 114 -333
229 -558 455 -116 116 -216 221 -223 232 -10 20 -4 24 117 71 187 73 524 180
574 181 12 1 21 -15 33 -56z"/>
</g>
</svg>
