<?xml version="1.0" standalone="no"?>
<!DOCTYPE svg PUBLIC "-//W3C//DTD SVG 20010904//EN"
 "http://www.w3.org/TR/2001/REC-SVG-20010904/DTD/svg10.dtd">
<svg version="1.0" xmlns="http://www.w3.org/2000/svg"
 width="1024.000000pt" height="1024.000000pt" viewBox="0 0 1024.000000 1024.000000"
 preserveAspectRatio="xMidYMid meet">

<g transform="translate(0.000000,1024.000000) scale(0.100000,-0.100000)"
fill="#000000" stroke="none">
<path d="M4710 8970 c-162 -26 -359 -110 -491 -209 -130 -98 -273 -271 -348
-418 -18 -36 -26 -43 -51 -43 -16 0 -52 -9 -80 -19 l-50 -19 0 162 0 162 35
17 c74 35 100 147 52 218 -27 41 -91 79 -132 79 -37 0 -102 -36 -128 -71 -49
-67 -20 -183 56 -224 l37 -20 0 -182 0 -183 -36 -49 c-62 -88 -77 -147 -71
-291 3 -95 10 -140 27 -188 40 -113 166 -222 257 -222 29 0 35 -6 65 -62 39
-76 152 -193 226 -235 l53 -30 -108 -5 c-75 -4 -125 -12 -164 -27 -58 -22
-134 -80 -143 -109 -3 -9 -30 -29 -59 -45 -186 -97 -487 -388 -487 -471 0 -8
-13 -34 -29 -58 -82 -123 -173 -412 -172 -550 0 -37 -4 -68 -8 -68 -5 0 -29
-18 -54 -41 -33 -28 -60 -67 -89 -126 -36 -73 -43 -97 -46 -160 -7 -131 49
-258 132 -297 102 -48 173 15 186 168 9 93 23 110 84 103 56 -8 63 -18 46 -75
-7 -26 -15 -70 -18 -98 -3 -43 0 -55 23 -82 23 -27 34 -32 71 -32 57 0 93 19
138 72 99 115 97 327 -5 468 -30 41 -30 42 -15 83 9 23 36 130 61 237 26 107
49 196 53 198 4 1 43 15 87 31 44 15 87 31 95 34 13 6 15 -8 17 -92 3 -166 52
-301 137 -379 39 -36 41 -41 33 -73 -4 -19 -8 -77 -9 -129 -1 -74 4 -109 21
-159 l22 -63 -40 -92 c-21 -51 -53 -139 -71 -196 -17 -58 -40 -130 -51 -161
-10 -31 -19 -65 -19 -77 0 -11 -5 -24 -11 -28 -19 -11 -168 -245 -202 -316
-19 -39 -38 -67 -48 -67 -43 -2 -125 -36 -157 -65 -34 -32 -35 -36 -35 -99 3
-193 174 -473 338 -553 l60 -29 -75 -3 c-41 -2 -80 -8 -87 -14 -10 -8 -13 -73
-13 -289 0 -184 -4 -280 -11 -284 -5 -4 -214 -6 -463 -6 -500 2 -480 5 -474
-61 l3 -33 2465 -3 c2309 -2 2466 -1 2478 15 17 24 18 2273 0 2291 -9 9 -148
12 -563 12 -415 0 -554 -3 -563 -12 -9 -9 -12 -128 -12 -474 0 -407 -2 -464
-16 -478 -13 -13 -43 -16 -170 -16 l-154 0 0 43 c0 100 -44 200 -118 269 -58
54 -112 84 -182 99 l-50 11 5 46 c10 79 28 353 28 427 0 102 -33 172 -105 219
-29 19 -80 61 -114 94 -58 57 -122 90 -183 95 -41 3 -23 35 33 60 137 63 191
152 226 374 9 56 15 72 31 76 13 4 26 -4 41 -25 68 -96 336 -173 579 -167 l96
3 51 -51 c138 -138 384 -121 441 30 18 46 13 82 -18 124 -36 49 -91 77 -138
70 -49 -8 -85 7 -81 35 4 33 48 45 101 29 103 -31 156 -22 184 33 47 91 -18
221 -137 275 -70 32 -199 29 -268 -5 -29 -14 -70 -46 -90 -71 -37 -44 -37 -44
-87 -38 -43 6 -297 55 -363 70 -18 4 -21 10 -16 30 8 31 -9 61 -121 209 -76
102 -165 196 -185 196 -5 0 -23 23 -40 51 -18 28 -53 66 -78 85 -25 19 -39 34
-31 34 8 0 61 23 118 51 87 43 117 64 180 128 54 54 86 97 111 147 31 65 40
74 80 90 25 9 68 41 97 69 43 43 55 65 73 124 20 63 22 88 18 209 -6 163 -21
211 -90 287 -26 28 -74 66 -108 84 -52 28 -65 41 -90 89 -147 289 -410 502
-718 584 -87 23 -319 33 -412 18z m374 -95 c104 -24 225 -77 318 -138 107 -70
168 -124 240 -215 228 -287 300 -628 198 -945 -85 -266 -294 -416 -646 -462
-217 -28 -649 -15 -823 26 -168 39 -312 121 -392 222 -47 59 -84 127 -69 127
5 0 28 16 50 36 61 55 82 122 88 279 7 203 -29 375 -91 438 l-33 32 39 70
c168 300 452 499 779 545 85 12 258 4 342 -15z m-1389 -80 c50 -49 20 -135
-47 -135 -36 0 -78 40 -78 75 0 74 76 110 125 60z m198 -603 c48 -50 77 -177
77 -334 0 -159 -28 -255 -84 -289 -39 -24 -116 -25 -158 -3 -27 14 -29 18 -15
26 25 14 65 98 83 175 11 49 15 99 12 178 -7 157 -28 197 -113 215 -30 6 -30
6 25 33 74 37 137 37 173 -1z m2065 -18 c19 -15 46 -51 61 -83 24 -52 26 -65
26 -201 0 -131 -2 -150 -24 -198 -24 -53 -90 -118 -78 -76 43 141 28 423 -28
567 -10 24 2 21 43 -9z m-1734 -1120 l149 -7 71 -54 c89 -67 205 -128 282
-148 72 -19 259 -21 329 -4 111 27 178 77 215 162 21 46 23 48 53 42 95 -20
169 -85 209 -184 20 -50 23 -73 22 -211 -1 -228 -60 -643 -103 -728 -42 -82
-136 -140 -273 -168 -248 -51 -987 -6 -1172 71 -80 34 -133 90 -169 182 -22
57 -38 196 -31 270 l7 62 63 31 c34 17 91 51 126 76 l63 45 -43 -39 c-23 -22
-78 -59 -122 -81 -78 -41 -80 -43 -80 -79 0 -24 3 -32 9 -24 6 10 10 8 14 -9
3 -12 1 -30 -4 -38 -8 -13 -9 -12 -6 7 3 12 0 22 -5 22 -18 0 -3 -168 20 -233
25 -70 86 -149 108 -140 9 3 14 0 12 -7 -2 -7 2 -14 8 -17 7 -2 10 5 7 20 -3
14 0 27 5 31 6 3 9 -8 8 -28 -1 -24 4 -36 14 -39 8 -3 23 -8 32 -12 17 -7 17
-4 2 36 -43 124 -29 403 33 628 4 17 3 22 -5 17 -7 -4 -3 8 7 26 71 123 66
287 -14 390 -38 51 -120 98 -169 98 -47 0 -18 19 55 35 35 8 78 12 94 10 17
-2 97 -7 179 -11z m-261 -140 c55 -36 82 -99 82 -194 0 -62 -5 -84 -27 -126
-15 -28 -42 -64 -60 -79 -46 -39 -271 -148 -371 -181 l-84 -27 -74 36 c-46 22
-93 55 -124 87 l-50 50 25 48 c50 95 258 270 425 358 131 70 185 76 258 28z
m1800 -287 l67 -100 -73 -76 c-40 -42 -90 -104 -111 -139 -21 -35 -39 -62 -41
-60 -1 2 7 66 17 143 12 92 17 185 16 272 l-3 132 30 -36 c17 -20 60 -81 98
-136z m948 -174 c62 -32 99 -80 99 -129 0 -28 -4 -35 -27 -40 -15 -4 -46 -2
-70 4 -87 24 -149 8 -196 -47 -31 -38 -34 -62 -10 -102 21 -35 48 -46 135 -54
103 -10 148 -63 95 -113 -57 -53 -159 -67 -233 -32 -136 66 -190 234 -121 383
64 140 200 194 328 130z m-673 -72 c84 -17 177 -34 208 -37 45 -6 54 -10 48
-23 -18 -45 -25 -104 -21 -177 l6 -82 -27 -5 c-46 -9 -252 14 -351 39 -111 28
-174 62 -191 103 -11 27 -9 35 13 74 44 74 117 149 141 144 12 -3 90 -19 174
-36z m-2757 -36 c33 -30 82 -64 109 -77 30 -14 48 -28 45 -36 -2 -6 -16 -69
-30 -140 -55 -269 -55 -270 -85 -302 -26 -27 -34 -30 -92 -30 -118 1 -185 52
-181 140 4 120 134 500 170 500 3 0 32 -25 64 -55z m746 -7 c-3 -8 -6 -5 -6 6
-1 11 2 17 5 13 3 -3 4 -12 1 -19z m-20 -120 c-3 -8 -6 -5 -6 6 -1 11 2 17 5
13 3 -3 4 -12 1 -19z m-10 -200 c-3 -8 -6 -5 -6 6 -1 11 2 17 5 13 3 -3 4 -12
1 -19z m-32 -36 c-3 -3 -11 0 -18 7 -9 10 -8 11 6 5 10 -3 15 -9 12 -12z m-51
-17 c-4 -8 -11 -15 -16 -15 -6 0 -5 6 2 15 7 8 14 15 16 15 2 0 1 -7 -2 -15z
m93 -17 c-3 -8 -6 -5 -6 6 -1 11 2 17 5 13 3 -3 4 -12 1 -19z m-47 -33 c7 -9
8 -15 2 -15 -5 0 -12 7 -16 15 -3 8 -4 15 -2 15 2 0 9 -7 16 -15z m-908 -186
c61 -44 190 -63 255 -38 25 10 31 7 56 -23 42 -50 70 -133 71 -210 0 -54 -5
-76 -29 -124 -34 -66 -85 -105 -110 -84 -19 16 -19 44 1 101 23 63 13 109 -32
148 -33 29 -39 31 -116 30 -75 -1 -84 -3 -109 -29 -25 -25 -28 -34 -28 -96 0
-83 -19 -147 -45 -152 -27 -6 -83 54 -101 106 -41 122 -4 256 95 345 29 26 54
47 57 47 3 0 18 -10 35 -21z m1003 -8 c141 -35 540 -71 804 -71 107 0 192 -3
189 -6 -12 -11 -398 -4 -563 11 -219 19 -392 42 -448 59 -44 13 -46 13 -51
-10 -11 -41 -8 -148 4 -194 27 -102 102 -179 210 -216 48 -16 87 -19 305 -19
177 0 260 4 286 13 20 7 60 35 90 63 52 48 52 49 11 20 -63 -43 -129 -54 -321
-49 -146 3 -172 6 -215 26 -68 31 -141 89 -162 128 -18 33 -18 34 2 55 33 33
82 39 389 49 239 7 305 13 375 30 47 12 99 24 115 27 l30 7 -25 7 c-23 6 -23
7 8 8 17 1 32 -3 32 -9 0 -5 9 -10 21 -10 17 0 12 -9 -28 -47 -27 -27 -68 -73
-90 -104 -59 -80 -162 -181 -204 -201 -81 -39 -485 -43 -614 -7 -126 35 -209
129 -234 264 -6 33 -9 75 -6 95 3 19 8 50 11 68 4 25 9 32 22 28 9 -3 35 -9
57 -15z m1150 -51 c-3 -5 -18 -10 -33 -9 l-27 1 25 8 c35 11 42 11 35 0z
m-522 -77 c-7 -2 -19 -2 -25 0 -7 3 -2 5 12 5 14 0 19 -2 13 -5z m712 -37 c23
-14 48 -33 56 -42 12 -15 12 -18 -1 -22 -8 -3 -35 -25 -60 -51 -46 -47 -80
-124 -80 -181 0 -33 -52 -108 -84 -120 -18 -7 -58 3 -174 43 l-150 51 24 19
c14 10 60 62 103 115 87 107 136 155 196 196 34 23 47 26 84 22 24 -4 63 -17
86 -30z m-1358 -282 c85 -65 141 -81 345 -99 l67 -7 -50 -101 c-56 -113 -150
-277 -159 -277 -3 1 -14 15 -25 33 -12 19 -43 44 -75 60 -47 24 -64 28 -121
25 -54 -3 -76 -10 -118 -36 -29 -17 -55 -32 -58 -32 -14 0 8 116 40 212 33 97
97 258 104 258 2 0 24 -16 50 -36z m882 -135 c185 -56 243 -80 236 -98 -42
-109 -105 -471 -105 -603 l0 -78 -118 0 c-78 0 -122 -4 -130 -12 -9 -9 -12
-91 -12 -309 0 -257 -2 -300 -16 -313 -13 -14 -57 -16 -327 -16 -172 0 -318 4
-325 8 -9 7 -10 16 -1 41 7 19 10 69 7 119 -3 75 -9 96 -38 150 -18 34 -49 76
-68 93 l-34 30 82 167 c59 121 91 175 116 195 40 34 59 67 70 122 4 22 19 56
34 75 40 51 130 208 196 342 l58 117 61 4 c110 8 215 -4 314 -34z m421 -13 c0
-8 19 -35 43 -61 62 -69 142 -86 231 -49 18 7 19 3 12 -72 -15 -176 -13 -170
-62 -189 -25 -9 -66 -33 -93 -53 -48 -37 -135 -131 -128 -138 2 -2 39 16 82
41 144 82 249 103 348 69 82 -28 161 -113 181 -196 l6 -28 -416 0 -416 0 6 68
c12 119 45 304 74 418 27 102 33 116 73 156 48 49 59 55 59 34z m-1537 -368
c-4 -13 -8 -46 -7 -74 1 -108 105 -218 213 -226 17 -1 31 -5 31 -8 0 -18 -111
-228 -128 -243 -75 -67 -235 1 -298 126 -48 93 -36 130 108 345 65 96 100 131
81 80z m-277 -431 c44 -126 187 -227 323 -227 59 -1 138 -43 165 -89 10 -18
25 -59 32 -90 16 -67 11 -74 -73 -92 -110 -25 -268 28 -365 123 -59 57 -124
185 -133 263 -8 60 10 158 28 152 6 -2 16 -20 23 -40z"/>
<path d="M4650 8429 c-147 -29 -266 -146 -312 -308 -25 -85 -36 -312 -19 -393
33 -159 137 -276 290 -328 56 -19 84 -20 433 -20 392 0 427 3 513 47 53 27
146 127 178 189 77 152 77 403 0 562 -35 71 -115 158 -184 199 -98 59 -135 63
-514 62 -187 -1 -360 -5 -385 -10z m377 -173 c32 -28 30 0 25 -392 l-2 -212
-32 -31 c-38 -37 -86 -48 -141 -31 -50 14 -112 76 -122 119 -3 16 -18 37 -31
46 -35 22 -57 79 -48 119 4 17 8 65 8 108 1 69 4 80 32 115 17 21 44 44 60 51
16 8 39 30 49 50 43 79 144 108 202 58z m220 13 c38 -14 73 -48 89 -86 10 -22
21 -33 35 -33 11 0 39 -18 62 -39 l42 -40 1 -118 c1 -127 -10 -174 -45 -193
-12 -6 -21 -20 -21 -31 0 -99 -140 -178 -234 -134 -66 31 -68 45 -64 339 3
223 6 266 21 293 27 51 59 63 114 42z"/>
<path d="M4908 8224 c-24 -12 -58 -59 -58 -79 0 -3 19 -4 43 -3 36 3 42 0 42
-17 0 -10 -12 -26 -26 -34 -24 -13 -29 -13 -57 8 -28 20 -35 21 -58 9 -40 -19
-66 -60 -71 -112 l-6 -46 49 27 c42 24 63 28 146 31 l98 4 2 67 c4 104 0 144
-14 152 -20 13 -60 10 -90 -7z"/>
<path d="M4833 7960 c-42 -10 -102 -55 -113 -86 -11 -27 0 -63 24 -84 15 -11
22 -9 54 23 48 47 78 48 120 4 59 -61 33 -101 -27 -43 l-38 37 -31 -36 c-18
-20 -32 -39 -32 -44 0 -20 48 -76 80 -93 41 -22 84 -16 118 15 21 19 22 28 22
169 l0 148 -72 -1 c-40 -1 -88 -5 -105 -9z"/>
<path d="M5179 8219 c-16 -16 -19 -34 -19 -119 l0 -100 98 0 c80 0 103 -4 130
-20 40 -24 52 -19 52 21 0 56 -32 95 -90 112 -8 2 -26 -4 -39 -14 -29 -23 -61
-10 -61 26 0 26 15 41 25 25 10 -16 25 -12 25 8 0 23 -47 67 -78 75 -16 4 -30
-1 -43 -14z"/>
<path d="M5159 7863 c0 -54 -2 -107 -5 -118 -2 -11 -1 -37 2 -58 5 -32 12 -41
40 -53 98 -41 209 69 158 155 -10 17 -21 31 -24 31 -3 0 -23 -18 -44 -39 -39
-40 -66 -44 -66 -11 0 18 81 100 99 100 23 0 42 -14 62 -46 17 -28 24 -32 35
-23 23 19 17 83 -11 113 -35 37 -65 46 -161 46 l-84 0 -1 -97z"/>
<path d="M3848 7798 c5 -5 16 -8 23 -6 8 3 3 7 -10 11 -17 4 -21 3 -13 -5z"/>
<path d="M3928 7793 c6 -2 18 -2 25 0 6 3 1 5 -13 5 -14 0 -19 -2 -12 -5z"/>
<path d="M5997 7912 c-18 -4 -18 -4 0 -18 11 -8 14 -17 8 -21 -15 -12 -18 -43
-5 -58 7 -8 9 -18 6 -24 -3 -5 -1 -11 6 -13 7 -3 5 -7 -6 -11 -15 -6 -17 -3
-13 13 3 11 2 20 -3 20 -4 0 -10 -28 -13 -62 -3 -35 -8 -74 -11 -87 -5 -23 -4
-24 11 -9 9 9 16 31 15 50 0 20 2 27 7 19 12 -19 24 4 16 30 -4 13 -3 19 3 15
11 -6 23 65 21 128 -1 34 -2 37 -8 16 -7 -23 -8 -23 -12 -5 -3 14 -10 19 -22
17z"/>
<path d="M5652 6554 c-1 -25 -3 -53 -6 -63 -2 -9 -7 -47 -11 -86 -3 -38 -8
-79 -11 -90 -3 -11 7 -1 23 22 16 23 43 58 61 77 l33 36 -42 75 c-22 41 -42
75 -44 75 -1 0 -3 -21 -3 -46z"/>
<path d="M2543 2751 c-40 -6 -44 -10 -233 -261 -195 -258 -237 -310 -252 -310
-4 0 -8 123 -8 273 0 199 -3 276 -12 285 -8 8 -51 12 -130 12 -106 0 -118 -2
-128 -20 -12 -22 -13 -1257 -1 -1300 l7 -25 129 0 130 0 3 186 2 187 61 66
c34 37 66 65 71 64 5 -2 89 -114 187 -248 97 -135 188 -251 202 -257 15 -8 67
-13 135 -13 120 0 174 7 174 22 0 5 -113 167 -250 359 -156 217 -248 354 -244
362 4 6 101 134 214 282 247 322 238 308 221 329 -11 13 -34 16 -125 14 -61 0
-130 -4 -153 -7z"/>
<path d="M2990 2751 l-25 -7 -3 -664 c-1 -429 1 -667 8 -674 5 -5 60 -12 122
-14 90 -3 117 -1 133 11 19 15 20 30 25 344 4 286 7 332 22 360 66 119 253
121 322 3 20 -33 21 -53 24 -350 1 -173 5 -325 7 -338 5 -22 7 -23 143 -20
l137 3 3 390 c3 467 3 465 -93 562 -54 53 -71 64 -134 84 -132 39 -278 13
-389 -72 l-52 -39 0 203 c0 145 -3 206 -12 215 -13 13 -194 15 -238 3z"/>
<path d="M5252 2678 c-8 -8 -12 -50 -12 -125 l0 -113 -64 0 c-47 0 -67 -4 -77
-17 -17 -20 -25 -158 -10 -195 9 -25 15 -27 78 -30 l68 -3 5 -300 5 -300 27
-51 c31 -60 83 -108 147 -137 39 -18 66 -21 172 -22 155 0 159 2 159 94 0 36
-3 82 -6 102 l-6 37 -69 4 c-76 4 -118 27 -130 69 -4 13 -7 133 -8 267 l-1
242 105 0 c93 0 105 2 115 19 14 27 13 164 -2 196 -11 24 -14 25 -115 25
l-103 0 0 115 c0 103 -2 115 -19 125 -28 14 -244 13 -259 -2z"/>
<path d="M4328 2435 c-48 -14 -109 -35 -135 -47 l-48 -23 -3 -60 c-5 -87 7
-165 25 -172 8 -3 69 11 135 32 230 73 357 42 375 -93 l6 -42 -140 0 c-216 0
-337 -38 -417 -131 -50 -59 -70 -125 -64 -213 6 -88 38 -155 103 -215 63 -58
121 -82 216 -88 99 -7 184 10 252 51 l53 32 14 -30 c12 -25 24 -32 60 -39 60
-10 196 1 210 18 8 10 11 123 8 387 l-3 373 -26 55 c-50 106 -128 171 -253
209 -97 30 -250 28 -368 -4z m315 -601 l37 -7 0 -68 c0 -66 -1 -68 -40 -102
-46 -39 -97 -57 -164 -57 -38 0 -52 6 -81 33 -84 77 -40 180 84 198 64 9 120
10 164 3z"/>
<path d="M7685 2441 c-99 -27 -181 -59 -196 -77 -17 -21 -6 -201 14 -222 14
-13 29 -10 139 24 233 72 348 42 373 -98 l7 -38 -133 0 c-258 -1 -392 -55
-459 -187 -34 -66 -35 -195 -3 -265 30 -66 96 -133 162 -165 50 -25 67 -27
161 -28 111 0 166 14 240 60 l34 22 16 -31 c13 -27 22 -32 73 -39 32 -4 88 -4
125 0 l67 8 3 375 c3 418 1 434 -63 522 -39 53 -100 98 -176 129 -78 32 -284
37 -384 10z m289 -607 l46 -7 0 -67 c0 -59 -3 -71 -25 -93 -79 -78 -221 -89
-275 -19 -27 34 -27 101 1 135 33 44 144 66 253 51z"/>
<path d="M7194 2442 c-111 -3 -112 -3 -123 -30 -6 -15 -43 -153 -82 -307 -39
-154 -73 -282 -75 -284 -2 -2 -6 2 -8 10 -3 8 -43 136 -91 284 -47 149 -91
282 -97 298 l-10 27 -118 0 c-82 0 -121 -4 -128 -13 -11 -13 -182 -570 -182
-593 0 -52 -26 21 -94 264 -43 152 -84 292 -91 310 l-14 32 -131 0 c-110 0
-132 -2 -137 -16 -3 -9 22 -109 57 -222 35 -114 102 -337 151 -496 48 -158 92
-293 99 -300 11 -11 215 -12 251 -1 14 5 40 73 110 288 51 155 94 286 97 291
2 4 24 -50 48 -120 144 -423 156 -454 178 -458 41 -9 181 -15 209 -9 15 3 32
13 37 23 5 9 77 234 160 499 140 446 158 521 130 521 -5 0 -14 1 -22 3 -7 1
-63 1 -124 -1z"/>
</g>
</svg>
