<svg width="541" height="168" viewBox="0 0 541 168" fill="none" xmlns="http://www.w3.org/2000/svg">
<path d="M4 149.708L27.3918 140.594L50.366 124.402L73.3401 116.356L96.732 132.318L119.706 128.771L143.098 124.402L166.49 98.6987H189.464L212.856 106.897L235.83 119.312L259.222 110.444L282.196 70.8345L305.588 63.149L328.562 74.3849L351.536 78.5199L374.928 70.8345L397.902 86.7965L421.294 89.1612L444.268 98.6987L467.66 114.582L490.634 106.897L514.026 82.067L537 33.0079" stroke="#A2A9B0" stroke-width="2" stroke-linecap="round" stroke-linejoin="round"/>
<path d="M4 149.708L27.3918 140.594L50.366 124.402L73.3401 116.356L96.732 132.318L119.706 128.771L143.098 124.402L166.49 98.6987H189.464L212.856 106.897L235.83 119.312L259.222 110.444L282.196 70.8345L305.588 63.149L328.562 74.3849L351.536 78.5199L374.928 70.8345L397.902 86.7965L421.294 89.1612L444.268 98.6987L467.66 114.582L490.634 106.897L514.026 82.067L537 33.0079" stroke="#A2A9B0" stroke-width="8" stroke-linecap="round" stroke-linejoin="round" stroke-dasharray="0.01 50"/>
<path d="M4 149.708L27.3918 140.594L50.366 124.402L73.3401 116.356L96.732 132.318L119.706 128.771L143.098 124.402L166.49 98.6987H189.464L212.856 106.897L235.83 119.312L259.222 110.444L282.196 70.8345L305.588 63.149L328.562 74.3849L351.536 78.5199L374.928 70.8345L397.902 86.7965L421.294 89.1612L444.268 98.6987L467.66 114.582L490.634 106.897L514.026 82.067L537 33.0079" stroke="white" stroke-width="6" stroke-linecap="round" stroke-linejoin="round" stroke-dasharray="0.01 50"/>
<path d="M4 163.708L27.3919 122.901L50.366 107.122L73.3401 86.8357L96.732 89.0897L119.706 80.0735L143.098 89.0897L166.49 80.0735L189.464 84.5816H212.856L235.83 92.4707H259.222L282.196 80.0735L305.588 70.4969L328.562 64.295H351.536L374.928 57.5329L397.902 50.2072L421.294 57.5329L444.268 70.4969L467.66 96.9789L490.634 94.7248L511.509 71.3779L524.254 44.572L537 4.00793" stroke="#C1C7CD" stroke-width="2" stroke-linecap="round" stroke-linejoin="round"/>
<path d="M4 163.708L27.3919 122.901L50.366 107.122L73.3401 86.8357L96.732 89.0897L119.706 80.0735L143.098 89.0897L166.49 80.0735L189.464 84.5816H212.856L235.83 92.4707H259.222L282.196 80.0735L305.588 70.4969L328.562 64.295H351.536L374.928 57.5329L397.902 50.2072L421.294 57.5329L444.268 70.4969L467.66 96.9789L490.634 94.7248L511.509 71.3779L524.254 44.572L537 4.00793" stroke="#C1C7CD" stroke-width="8" stroke-linecap="round" stroke-linejoin="round" stroke-dasharray="0.01 50"/>
<path d="M4 163.708L27.3919 122.901L50.366 107.122L73.3401 86.8357L96.732 89.0897L119.706 80.0735L143.098 89.0897L166.49 80.0735L189.464 84.5816H212.856L235.83 92.4707H259.222L282.196 80.0735L305.588 70.4969L328.562 64.295H351.536L374.928 57.5329L397.902 50.2072L421.294 57.5329L444.268 70.4969L467.66 96.9789L490.634 94.7248L511.509 71.3779L524.254 44.572L537 4.00793" stroke="white" stroke-width="6" stroke-linecap="round" stroke-linejoin="round" stroke-dasharray="0.01 50"/>
</svg>
