<?xml version="1.0" standalone="no"?>
<!DOCTYPE svg PUBLIC "-//W3C//DTD SVG 20010904//EN"
 "http://www.w3.org/TR/2001/REC-SVG-20010904/DTD/svg10.dtd">
<svg version="1.0" xmlns="http://www.w3.org/2000/svg"
 width="1024.000000pt" height="1024.000000pt" viewBox="0 0 1024.000000 1024.000000"
 preserveAspectRatio="xMidYMid meet">

<g transform="translate(0.000000,1024.000000) scale(0.100000,-0.100000)"
fill="#000000" stroke="none">
<path d="M5044 8801 c-23 -10 -52 -34 -65 -52 l-24 -34 -3 -602 c-2 -589 -2
-604 18 -643 30 -59 82 -90 151 -90 66 0 111 25 143 80 20 33 21 48 19 345 -1
171 -2 443 -3 606 0 291 0 297 -23 330 -51 76 -129 98 -213 60z"/>
<path d="M2662 7807 c-43 -13 -98 -75 -106 -120 -4 -20 -2 -56 4 -79 10 -38
55 -87 408 -436 398 -395 441 -431 507 -432 45 0 116 40 142 79 28 41 30 108
7 158 -20 41 -802 812 -842 830 -33 15 -75 15 -120 0z"/>
<path d="M7460 7794 c-40 -17 -812 -782 -837 -828 -21 -41 -13 -124 17 -166
44 -62 144 -88 207 -52 17 9 207 190 422 402 417 410 438 435 428 511 -15 115
-130 179 -237 133z"/>
<path d="M4936 7059 c-605 -64 -1197 -491 -1455 -1051 -258 -559 -221 -1203
98 -1727 162 -265 420 -505 701 -653 559 -294 1229 -273 1770 56 237 145 430
334 602 591 202 301 311 729 280 1100 -55 649 -440 1213 -1032 1510 -294 147
-634 209 -964 174z m506 -363 c198 -46 383 -133 552 -260 114 -86 168 -137
264 -252 338 -403 439 -942 270 -1434 -79 -229 -172 -375 -352 -555 -263 -262
-552 -399 -916 -436 -347 -35 -739 71 -1014 274 -101 75 -245 218 -318 317
-283 382 -365 928 -207 1377 175 494 604 873 1100 972 146 29 155 30 344 26
136 -3 192 -9 277 -29z"/>
<path d="M1635 5401 c-104 -47 -134 -158 -69 -253 48 -69 37 -68 670 -68 545
0 566 1 604 20 45 23 90 91 90 136 0 75 -34 130 -102 165 -35 18 -66 19 -595
19 -520 0 -561 -2 -598 -19z"/>
<path d="M7409 5410 c-46 -14 -78 -41 -100 -87 -40 -83 -5 -187 75 -224 38
-17 77 -19 605 -19 l563 0 40 22 c123 69 115 233 -14 299 -35 18 -65 19 -590
18 -304 0 -565 -4 -579 -9z"/>
<path d="M3380 3749 c-33 -15 -146 -120 -438 -412 -217 -216 -402 -409 -413
-429 -74 -143 86 -291 235 -218 27 13 181 160 443 422 353 355 403 408 413
446 20 77 -20 159 -94 193 -53 24 -90 23 -146 -2z"/>
<path d="M6682 3743 c-80 -39 -114 -141 -74 -219 26 -48 794 -815 841 -839
148 -74 301 88 216 229 -25 42 -814 826 -843 838 -31 12 -107 8 -140 -9z"/>
<path d="M5036 3057 c-22 -12 -49 -35 -60 -50 -21 -28 -21 -38 -24 -600 -2
-315 0 -587 3 -605 9 -47 68 -109 118 -123 50 -13 121 2 155 34 59 55 57 29
54 665 -2 403 -6 591 -13 605 -46 89 -150 122 -233 74z"/>
</g>
</svg>
